<?xml version="1.0" encoding="utf-8"?>
<!-- Generator: Adobe Illustrator 21.1.0, SVG Export Plug-In . SVG Version: 6.00 Build 0)  -->
<svg version="1.1" id="Ebene_1" xmlns="http://www.w3.org/2000/svg" xmlns:xlink="http://www.w3.org/1999/xlink" x="0px" y="0px"
	 viewBox="0 0 1186.3 403.2" style="enable-background:new 0 0 1186.3 403.2;" xml:space="preserve">
<style type="text/css">
	.st0{enable-background:new    ;}
</style>
<title>Der Knoten- punkt</title>
<desc>Created with Sketch.</desc>
<g id="h1-text" transform="translate(-81.000000, -44.000000)">
	<g class="st0">
		<path d="M165.7,62.8c11,6.3,19.6,15.4,25.7,27.1c6.1,11.8,9.2,25.5,9.2,41.2v10c0,15.9-3.1,29.6-9.2,41.4
			c-6.1,11.7-14.8,20.7-26.1,27c-11.3,6.3-24.6,9.4-39.8,9.4H90.9H80.6V53.3h22.1h24.7C141.9,53.3,154.6,56.4,165.7,62.8z
			 M178.7,130.8c0-12.6-2-23.3-6-32.3c-4-8.9-9.8-15.7-17.5-20.4c-7.7-4.7-17-7.1-27.8-7.1h-24.7v130h22.8c11.5,0,21.3-2.4,29.2-7.3
			c8-4.9,14-11.8,18-20.8c4-9,6-19.6,6-31.9V130.8z"/>
		<path d="M329.4,163.2h-83.3c0.2,7.7,1.8,14.6,4.8,20.8c3,6.2,7.1,11.1,12.6,14.7c5.4,3.6,11.8,5.4,19.1,5.4
			c7.1,0,13.3-1.4,18.5-4.3c5.2-2.9,9.8-7,13.9-12.4l12.9,10c-4.6,7-10.6,12.7-18.2,17.1c-7.6,4.4-17,6.7-28.2,6.7
			c-11.2,0-21.1-2.5-29.7-7.6c-8.6-5.1-15.2-12.1-19.9-21.2c-4.7-9-7-19.3-7-30.7v-4.9c0-12.8,2.5-24,7.5-33.6
			c5-9.6,11.6-16.9,19.9-22c8.2-5.1,17-7.6,26.5-7.6c11.5,0,21,2.6,28.5,7.7c7.5,5.1,13.1,12.2,16.8,21.2c3.6,9,5.5,19.5,5.5,31.3
			V163.2z M308.2,144.5c-0.6-9.6-3.2-17.7-7.8-24.2c-4.6-6.5-11.8-9.7-21.7-9.7c-8.5,0-15.6,3.1-21.2,9.3
			c-5.7,6.2-9.2,14.9-10.6,26.2h61.3V144.5z"/>
		<path d="M409.3,94c2,0.3,3.5,0.7,4.2,1.1v19.5c-3.3-0.6-6.7-0.9-10.4-0.9c-7,0-12.8,1.6-17.5,4.7c-4.7,3.1-8.2,7.5-10.5,13.1v87.5
			h-21.3V95.8h20.7l0.5,14c3.2-5.2,7.2-9.2,12.1-12c4.9-2.8,10.5-4.3,17.1-4.3C405.6,93.5,407.3,93.7,409.3,94z"/>
		<path d="M536.3,141.8L516,162.7v56.2H494V53.3H516v81.7l73.4-81.7H616l-65.2,73l70.2,92.6h-26.4L536.3,141.8z"/>
		<path d="M733.6,138.2v80.7h-21.3V138c0-9.4-2-16.2-6.1-20.5c-4.1-4.2-10.2-6.4-18.4-6.4c-6.5,0-12.4,1.8-17.6,5.3
			c-5.2,3.6-9.3,8.3-12.3,14.3v88.1h-21.3V95.8h20.1l0.7,15.1c4.5-5.5,9.8-9.8,16-12.9c6.2-3,13.1-4.6,20.6-4.6
			C720.4,93.5,733.6,108.4,733.6,138.2z"/>
		<path d="M766.7,124c4.6-9.5,11.1-16.9,19.5-22.4c8.5-5.4,18.3-8.1,29.5-8.1c11.4,0,21.3,2.7,29.8,8.1c8.5,5.4,15,12.9,19.6,22.4
			c4.6,9.5,6.8,20.2,6.8,32.1v2.6c0,11.9-2.3,22.6-6.8,32c-4.6,9.4-11.1,16.9-19.5,22.3c-8.5,5.4-18.3,8.1-29.6,8.1
			c-11.3,0-21.2-2.7-29.6-8.1c-8.5-5.4-15-12.9-19.6-22.3c-4.6-9.4-6.9-20.1-6.9-32v-2.6C759.8,144.2,762.1,133.5,766.7,124z
			 M785,181.6c2.6,6.9,6.5,12.4,11.8,16.4c5.2,4.1,11.6,6.1,19.1,6.1c7.4,0,13.8-2,19-6.1c5.2-4.1,9.2-9.5,11.8-16.4
			c2.6-6.9,3.9-14.5,3.9-22.9v-2.6c0-8.3-1.3-16-4-22.9c-2.7-6.9-6.6-12.4-11.8-16.5s-11.6-6.1-19.1-6.1c-7.4,0-13.7,2-18.9,6.1
			c-5.2,4.1-9.1,9.6-11.7,16.5c-2.6,6.9-3.9,14.5-3.9,22.9v2.6C781.1,167.1,782.4,174.7,785,181.6z"/>
		<path d="M950.5,218.9c-4.9,1.5-10.3,2.3-16.3,2.3c-8.6,0-15.5-2.6-20.6-7.7c-5.2-5.2-7.8-13.5-7.8-25.1v-76.5h-22.4v-16h22.4V65.9
			h21.3v29.9h23v16h-23v76.6c0,5.8,1.2,9.8,3.6,11.8c2.4,2,5.7,3,9.9,3c1.6,0,3.3-0.1,5.2-0.4c1.9-0.3,3.4-0.5,4.6-0.9L950.5,218.9z
			"/>
		<path d="M1073.7,163.2h-83.3c0.2,7.7,1.8,14.6,4.8,20.8c3,6.2,7.1,11.1,12.6,14.7c5.4,3.6,11.8,5.4,19.1,5.4
			c7.1,0,13.3-1.4,18.5-4.3c5.2-2.9,9.8-7,13.9-12.4l12.9,10c-4.6,7-10.6,12.7-18.2,17.1c-7.6,4.4-17,6.7-28.2,6.7
			c-11.2,0-21.1-2.5-29.7-7.6c-8.6-5.1-15.2-12.1-19.9-21.2c-4.7-9-7-19.3-7-30.7v-4.9c0-12.8,2.5-24,7.5-33.6
			c5-9.6,11.6-16.9,19.9-22c8.2-5.1,17-7.6,26.5-7.6c11.5,0,21,2.6,28.5,7.7c7.5,5.1,13.1,12.2,16.8,21.2c3.6,9,5.5,19.5,5.5,31.3
			V163.2z M1052.5,144.5c-0.6-9.6-3.2-17.7-7.8-24.2c-4.6-6.5-11.8-9.7-21.7-9.7c-8.5,0-15.6,3.1-21.2,9.3
			c-5.7,6.2-9.2,14.9-10.6,26.2h61.3V144.5z"/>
		<path d="M1195.1,138.2v80.7h-21.3V138c0-9.4-2-16.2-6.1-20.5c-4.1-4.2-10.2-6.4-18.4-6.4c-6.5,0-12.4,1.8-17.6,5.3
			c-5.2,3.6-9.3,8.3-12.3,14.3v88.1h-21.3V95.8h20.1l0.7,15.1c4.5-5.5,9.8-9.8,16-12.9c6.2-3,13.1-4.6,20.6-4.6
			C1182,93.5,1195.1,108.4,1195.1,138.2z"/>
		<path d="M1215.1,157v-17.2h55.6V157H1215.1z"/>
	</g>
	<g class="st0">
		<path d="M794.7,282.3c7.2,5.2,12.7,12.5,16.4,22c3.7,9.4,5.6,20.5,5.6,33v2.4c0,12.1-1.9,22.8-5.6,32.3
			c-3.8,9.4-9.2,16.8-16.4,22.2c-7.2,5.3-15.7,8-25.7,8c-14.9,0-26.6-4.7-35.2-14.1v59.2h-21.3V276.8h19.3l1.1,13.4
			c8.6-10.5,20.4-15.7,35.6-15.7C778.8,274.5,787.5,277.1,794.7,282.3z M795.4,337.3c0-8.5-1.2-16.1-3.6-22.9
			c-2.4-6.8-6.1-12.2-11-16.2c-5-4-11.1-6-18.5-6c-6.7,0-12.4,1.5-17.1,4.6c-4.7,3-8.5,7.2-11.4,12.4v59.3
			c6.3,11.1,15.9,16.7,28.7,16.7c7.3,0,13.4-2,18.3-6.1c4.9-4.1,8.6-9.5,11-16.3c2.4-6.8,3.6-14.5,3.6-23V337.3z"/>
		<path d="M939.3,276.8v123.1h-20.3l-0.3-12.2c-8.2,9.6-20.2,14.4-36.1,14.4c-12.7,0-22.6-3.7-29.7-11.1c-7.1-7.4-10.7-19-10.7-34.8
			v-79.4h21.3v79.6c0,10.2,2.1,17.5,6.3,21.7c4.2,4.2,9.6,6.3,16.2,6.3c15.9,0,26.6-6,32-17.9v-89.8H939.3z"/>
		<path d="M1067.4,319.2v80.7h-21.3V319c0-9.4-2-16.2-6.1-20.5c-4.1-4.2-10.2-6.4-18.4-6.4c-6.5,0-12.4,1.8-17.6,5.3
			c-5.2,3.6-9.3,8.3-12.3,14.3v88.1h-21.3V276.8h20.1l0.7,15.1c4.5-5.5,9.8-9.8,16-12.9c6.2-3,13.1-4.6,20.6-4.6
			C1054.2,274.5,1067.4,289.4,1067.4,319.2z"/>
		<path d="M1133,342.8l-13.2,13.7v43.5h-21.3V225.2h21.3v105.6l11.3-13.3l38-40.6h25.8l-47.9,51.3l53.6,71.8h-25L1133,342.8z"/>
		<path d="M1268.2,399.9c-4.9,1.5-10.3,2.3-16.3,2.3c-8.6,0-15.5-2.6-20.6-7.7c-5.2-5.2-7.8-13.5-7.8-25.1v-76.5H1201v-16h22.4
			v-29.9h21.3v29.9h23v16h-23v76.6c0,5.8,1.2,9.8,3.6,11.8c2.4,2,5.7,3,9.9,3c1.6,0,3.3-0.1,5.2-0.4c1.9-0.3,3.4-0.5,4.6-0.9
			L1268.2,399.9z"/>
	</g>
</g>
</svg>
