<?xml version="1.0" encoding="utf-8"?>
<!-- Generator: Adobe Illustrator 21.1.0, SVG Export Plug-In . SVG Version: 6.00 Build 0)  -->
<svg version="1.1" id="Ebene_1" xmlns="http://www.w3.org/2000/svg" xmlns:xlink="http://www.w3.org/1999/xlink" x="0px" y="0px"
	 viewBox="0 0 1045.8 436.3" style="enable-background:new 0 0 1045.8 436.3;" xml:space="preserve">
<style type="text/css">
	.st0{enable-background:new    ;}
</style>
<title>Der Knoten- punkt</title>
<desc>Created with Sketch.</desc>
<g id="h1-text" transform="translate(-81.000000, -44.000000)">
	<g class="st0">
		<path d="M179.9,67.3v165.9h-18.5l-1-12.4c-7.9,9.7-19,14.6-33.3,14.6c-9,0-17-2.6-24-7.7c-7-5.1-12.4-12.2-16.3-21.2
			c-3.9-9-5.8-19.2-5.8-30.5v-2.3c0-11.8,1.9-22.2,5.7-31.2c3.8-9,9.2-16,16.2-21c7-5,15.1-7.5,24.3-7.5c13.8,0,24.5,4.6,32.3,13.7
			V67.3H179.9z M159.7,201.6v-54.1c-2.7-5.1-6.4-9.1-10.9-12.1c-4.5-3-10-4.4-16.5-4.4c-7,0-12.8,1.9-17.4,5.7s-8.1,8.9-10.3,15.4
			c-2.2,6.5-3.3,13.8-3.3,21.8v2.3c0,8.1,1.1,15.3,3.3,21.7c2.2,6.4,5.6,11.4,10.2,15.2c4.6,3.7,10.4,5.6,17.3,5.6
			C144.6,218.5,153.8,212.9,159.7,201.6z"/>
		<path d="M305.5,180.3h-79.1c0.2,7.3,1.7,13.9,4.5,19.8c2.8,5.9,6.8,10.6,11.9,14c5.1,3.4,11.2,5.1,18.1,5.1
			c6.8,0,12.6-1.4,17.5-4.1c4.9-2.7,9.3-6.7,13.2-11.8l12.2,9.5c-4.3,6.6-10.1,12-17.3,16.3c-7.2,4.2-16.1,6.3-26.8,6.3
			c-10.7,0-20.1-2.4-28.2-7.2c-8.1-4.8-14.4-11.5-18.8-20.1c-4.4-8.6-6.6-18.3-6.6-29.2v-4.6c0-12.2,2.4-22.8,7.1-31.9
			c4.8-9.1,11-16.1,18.8-20.9c7.8-4.8,16.2-7.2,25.1-7.2c10.9,0,19.9,2.4,27.1,7.3c7.2,4.9,12.5,11.6,15.9,20.1
			c3.5,8.6,5.2,18.5,5.2,29.7V180.3z M285.3,162.6c-0.6-9.1-3-16.8-7.4-22.9c-4.4-6.2-11.2-9.2-20.6-9.2c-8.1,0-14.8,2.9-20.1,8.8
			c-5.4,5.9-8.7,14.2-10.1,24.9h58.2V162.6z"/>
		<path d="M381.8,114.7c1.9,0.3,3.3,0.7,4,1v18.5c-3.1-0.6-6.4-0.9-9.8-0.9c-6.6,0-12.1,1.5-16.6,4.4c-4.4,3-7.8,7.1-10,12.4v83
			h-20.2V116.4h19.7l0.4,13.3c3-4.9,6.8-8.7,11.4-11.4c4.6-2.7,10-4,16.2-4C378.2,114.2,379.8,114.4,381.8,114.7z"/>
		<path d="M498.7,160l-19.2,19.9v53.3h-21V76h21v77.5L549.2,76h25.3l-61.9,69.3l66.6,87.9h-25.1L498.7,160z"/>
		<path d="M686.4,156.6v76.6h-20.2v-76.8c0-8.9-1.9-15.4-5.8-19.4c-3.9-4-9.7-6-17.4-6c-6.2,0-11.8,1.7-16.7,5.1
			c-4.9,3.4-8.8,7.9-11.7,13.6v83.6h-20.2V116.4h19.1l0.6,14.4c4.2-5.3,9.3-9.3,15.2-12.2c5.9-2.9,12.4-4.3,19.5-4.3
			C673.9,114.2,686.4,128.3,686.4,156.6z"/>
		<path d="M718.3,143.1c4.3-9,10.5-16.1,18.5-21.2c8-5.1,17.4-7.7,28-7.7c10.8,0,20.2,2.6,28.3,7.7c8.1,5.1,14.3,12.2,18.6,21.2
			c4.3,9,6.5,19.2,6.5,30.5v2.5c0,11.3-2.2,21.4-6.5,30.4c-4.3,9-10.5,16-18.5,21.2c-8,5.1-17.4,7.7-28.1,7.7
			c-10.7,0-20.1-2.6-28.1-7.7c-8-5.1-14.2-12.2-18.6-21.2c-4.4-9-6.5-19.1-6.5-30.4v-2.5C711.8,162.3,714,152.1,718.3,143.1z
			 M735.7,197.8c2.5,6.6,6.2,11.8,11.2,15.6c5,3.9,11,5.8,18.1,5.8c7.1,0,13.1-1.9,18-5.8c5-3.9,8.7-9.1,11.2-15.6
			c2.5-6.6,3.7-13.8,3.7-21.7v-2.5c0-7.9-1.3-15.2-3.8-21.7c-2.5-6.6-6.3-11.8-11.2-15.7s-11-5.8-18.1-5.8c-7.1,0-13,1.9-18,5.8
			c-4.9,3.9-8.6,9.1-11.1,15.7c-2.5,6.6-3.7,13.8-3.7,21.7v2.5C732,184,733.3,191.2,735.7,197.8z"/>
		<path d="M893.3,233.2c-4.6,1.4-9.8,2.2-15.4,2.2c-8.1,0-14.7-2.4-19.6-7.3c-4.9-4.9-7.4-12.9-7.4-23.9v-72.6h-21.3v-15.2h21.3V88
			H871v28.4h21.8v15.2H871v72.7c0,5.5,1.2,9.3,3.5,11.2c2.3,1.9,5.4,2.9,9.4,2.9c1.5,0,3.2-0.1,5-0.4c1.8-0.3,3.2-0.5,4.3-0.8
			L893.3,233.2z"/>
		<path d="M1010.7,180.3h-79.1c0.2,7.3,1.7,13.9,4.5,19.8c2.8,5.9,6.8,10.6,11.9,14c5.1,3.4,11.2,5.1,18.1,5.1
			c6.8,0,12.6-1.4,17.5-4.1c4.9-2.7,9.3-6.7,13.2-11.8l12.2,9.5c-4.3,6.6-10.1,12-17.3,16.3c-7.2,4.2-16.1,6.3-26.8,6.3
			c-10.7,0-20.1-2.4-28.2-7.2c-8.1-4.8-14.4-11.5-18.8-20.1c-4.4-8.6-6.6-18.3-6.6-29.2v-4.6c0-12.2,2.4-22.8,7.1-31.9
			c4.8-9.1,11-16.1,18.8-20.9c7.8-4.8,16.2-7.2,25.1-7.2c10.9,0,19.9,2.4,27.1,7.3c7.2,4.9,12.5,11.6,15.9,20.1
			c3.5,8.6,5.2,18.5,5.2,29.7V180.3z M990.5,162.6c-0.6-9.1-3-16.8-7.4-22.9c-4.4-6.2-11.2-9.2-20.6-9.2c-8.1,0-14.8,2.9-20.1,8.8
			c-5.4,5.9-8.7,14.2-10.1,24.9h58.2V162.6z"/>
		<path d="M1126.3,156.6v76.6h-20.2v-76.8c0-8.9-1.9-15.4-5.8-19.4c-3.9-4-9.7-6-17.4-6c-6.2,0-11.8,1.7-16.7,5.1
			c-4.9,3.4-8.8,7.9-11.7,13.6v83.6h-20.2V116.4h19.1l0.6,14.4c4.2-5.3,9.3-9.3,15.2-12.2c5.9-2.9,12.4-4.3,19.5-4.3
			C1113.8,114.2,1126.3,128.3,1126.3,156.6z"/>
	</g>
	<g class="st0">
		<path d="M672.8,306.5c6.8,4.9,12,11.9,15.6,20.8c3.5,9,5.3,19.4,5.3,31.4v2.3c0,11.4-1.8,21.7-5.3,30.6c-3.6,9-8.7,16-15.6,21.1
			c-6.8,5.1-14.9,7.6-24.4,7.6c-14.1,0-25.2-4.5-33.4-13.4v56.2h-20.2V301.3h18.4l1.1,12.7c8.1-9.9,19.4-14.9,33.8-14.9
			C657.7,299.1,665.9,301.6,672.8,306.5z M673.4,358.7c0-8.1-1.1-15.3-3.4-21.8c-2.3-6.4-5.8-11.6-10.5-15.4
			c-4.7-3.8-10.6-5.7-17.5-5.7c-6.3,0-11.7,1.4-16.2,4.3c-4.5,2.9-8.1,6.8-10.8,11.8v56.3c6,10.6,15,15.9,27.2,15.9
			c6.9,0,12.7-1.9,17.4-5.8c4.7-3.9,8.2-9,10.4-15.5c2.3-6.5,3.4-13.8,3.4-21.8V358.7z"/>
		<path d="M811.1,301.3v116.8h-19.2l-0.3-11.6c-7.8,9.1-19.2,13.7-34.2,13.7c-12,0-21.4-3.5-28.2-10.6c-6.8-7.1-10.2-18.1-10.2-33
			v-75.4h20.2v75.6c0,9.7,2,16.6,6,20.6c4,4,9.1,6,15.4,6c15.1,0,25.2-5.7,30.3-17v-85.2H811.1z"/>
		<path d="M933.8,341.6v76.6h-20.2v-76.8c0-8.9-1.9-15.4-5.8-19.4c-3.9-4-9.7-6-17.4-6c-6.2,0-11.8,1.7-16.7,5.1
			c-4.9,3.4-8.8,7.9-11.7,13.6v83.6h-20.2V301.3h19.1l0.6,14.4c4.2-5.3,9.3-9.3,15.2-12.2c5.9-2.9,12.4-4.3,19.5-4.3
			C921.3,299.1,933.8,313.3,933.8,341.6z"/>
		<path d="M997.2,363.9l-12.5,13v41.3h-20.2V252.3h20.2v100.2l10.7-12.6l36.1-38.6h24.5l-45.5,48.7l50.9,68.1h-23.8L997.2,363.9z"/>
		<path d="M1126.6,418.1c-4.6,1.4-9.8,2.2-15.4,2.2c-8.1,0-14.7-2.4-19.6-7.3c-4.9-4.9-7.4-12.9-7.4-23.9v-72.6h-21.3v-15.2h21.3
			v-28.4h20.2v28.4h21.8v15.2h-21.8v72.7c0,5.5,1.2,9.3,3.5,11.2c2.3,1.9,5.4,2.9,9.4,2.9c1.5,0,3.2-0.1,5-0.4
			c1.8-0.3,3.2-0.5,4.3-0.8L1126.6,418.1z"/>
	</g>
</g>
</svg>
