<?xml version="1.0" encoding="utf-8"?>
<!-- Generator: Adobe Illustrator 21.1.0, SVG Export Plug-In . SVG Version: 6.00 Build 0)  -->
<svg version="1.1" id="Ebene_1" xmlns="http://www.w3.org/2000/svg" xmlns:xlink="http://www.w3.org/1999/xlink" x="0px" y="0px"
	 viewBox="0 0 1266.8 223" style="enable-background:new 0 0 1266.8 223;" xml:space="preserve">
<style type="text/css">
	.st0{enable-background:new    ;}
</style>
<title>Limmatplatz</title>
<desc>Created with Sketch.</desc>
<g id="_x31_.0_x5F_detail_x5F_04-copy-2" transform="translate(-32.000000, -263.000000)">
	<g class="st0">
		<path d="M130.6,416.3V434H47.8H30.1V268.4h22.1v147.9H130.6z"/>
		<path d="M174.2,269.5c2.2,2.3,3.4,5.2,3.4,8.6c0,3.4-1.1,6.2-3.4,8.5c-2.2,2.2-5.3,3.4-9.3,3.4c-3.9,0-7-1.1-9.2-3.4
			c-2.2-2.2-3.2-5.1-3.2-8.5c0-3.5,1.1-6.4,3.2-8.6c2.2-2.3,5.2-3.4,9.2-3.4C168.8,266.1,171.9,267.2,174.2,269.5z M154.1,434V310.9
			h21.3V434H154.1z"/>
		<path d="M370.9,319.4c7,7.2,10.5,18.4,10.5,33.7V434h-21.3v-81.1c0-9.8-2.2-16.7-6.7-20.6c-4.4-4-10.9-6-19.5-6
			c-5.5,0-10.2,1.2-14.3,3.5c-4.1,2.3-7.3,5.4-9.6,9.4c-2.3,3.9-3.7,8.4-4.3,13.3V434h-21.3v-81c0-17.8-8.8-26.7-26.3-26.7
			c-7.1,0-12.9,1.5-17.5,4.6c-4.6,3.1-8.2,7.3-10.6,12.8V434h-21.3V310.9h20.1l0.7,13.3c4.2-5,9.4-8.9,15.5-11.5
			c6.1-2.7,13-4,20.8-4c8.1,0,15.2,1.6,21.3,4.8c6.1,3.2,10.7,8.1,13.8,14.7c4.2-6.1,9.7-10.8,16.3-14.3c6.6-3.5,14.2-5.2,22.8-5.2
			C353.7,308.6,363.9,312.2,370.9,319.4z"/>
		<path d="M575.1,319.4c7,7.2,10.5,18.4,10.5,33.7V434h-21.3v-81.1c0-9.8-2.2-16.7-6.7-20.6c-4.4-4-10.9-6-19.5-6
			c-5.5,0-10.2,1.2-14.3,3.5c-4.1,2.3-7.3,5.4-9.6,9.4c-2.3,3.9-3.7,8.4-4.3,13.3V434h-21.3v-81c0-17.8-8.8-26.7-26.3-26.7
			c-7.1,0-12.9,1.5-17.5,4.6c-4.6,3.1-8.2,7.3-10.6,12.8V434H413V310.9h20.1l0.7,13.3c4.2-5,9.4-8.9,15.5-11.5c6.1-2.7,13-4,20.8-4
			c8.1,0,15.2,1.6,21.3,4.8c6.1,3.2,10.7,8.1,13.8,14.7c4.2-6.1,9.7-10.8,16.3-14.3c6.6-3.5,14.2-5.2,22.8-5.2
			C557.9,308.6,568.2,312.2,575.1,319.4z"/>
		<path d="M712.3,420.5c0.8,4.6,1.8,8.5,3.2,11.7v1.8h-22.2c-1.3-3-2.3-7.2-3-12.9c-4.2,4.6-9.3,8.2-15.3,11
			c-6,2.8-12.5,4.2-19.6,4.2c-8.2,0-15.5-1.6-21.8-4.8c-6.3-3.2-11.2-7.6-14.7-13.1c-3.5-5.5-5.2-11.7-5.2-18.4
			c0-8.7,2.3-16.1,6.8-22.2c4.5-6.1,10.9-10.6,19.2-13.7c8.3-3.1,18.1-4.6,29.4-4.6h20.7v-9.8c0-7.5-2.2-13.4-6.7-17.7
			c-4.4-4.3-10.8-6.4-19.2-6.4c-5.1,0-9.6,0.9-13.7,2.7c-4,1.8-7.1,4.2-9.4,7.2c-2.2,3-3.4,6.2-3.4,9.7h-21.3c0-6,2-11.8,6.1-17.4
			c4.1-5.6,9.9-10.2,17.3-13.7c7.4-3.5,15.9-5.3,25.5-5.3c9.1,0,17.1,1.5,23.9,4.6c6.9,3.1,12.2,7.7,16.1,13.9
			c3.9,6.2,5.8,13.7,5.8,22.7v57.3C711.2,411.5,711.6,415.9,712.3,420.5z M672.1,415.5c4.2-1.7,7.8-4,10.9-6.8
			c3-2.8,5.3-5.8,6.9-9.1v-25.5h-17.3c-12.1,0-21.4,1.9-27.9,5.7c-6.4,3.8-9.7,9.5-9.7,17c0,4,0.9,7.6,2.7,10.8s4.5,5.7,8,7.6
			c3.5,1.9,7.7,2.8,12.7,2.8C663.4,418.1,667.9,417.2,672.1,415.5z"/>
		<path d="M796.4,434c-4.9,1.5-10.3,2.3-16.3,2.3c-8.6,0-15.5-2.6-20.6-7.7c-5.2-5.2-7.8-13.5-7.8-25.1v-76.5h-22.4v-16h22.4V281
			H773v29.9h23v16h-23v76.6c0,5.8,1.2,9.8,3.6,11.8c2.4,2,5.7,3,9.9,3c1.6,0,3.3-0.1,5.2-0.4c1.9-0.3,3.4-0.5,4.6-0.9L796.4,434z"/>
		<path d="M902.6,316.4c7.2,5.2,12.7,12.5,16.4,22c3.7,9.4,5.6,20.5,5.6,33v2.4c0,12.1-1.9,22.8-5.6,32.3
			c-3.8,9.4-9.2,16.8-16.4,22.2c-7.2,5.3-15.7,8-25.7,8c-14.9,0-26.6-4.7-35.2-14.1v59.2h-21.3V310.9h19.3l1.1,13.4
			c8.6-10.5,20.4-15.7,35.6-15.7C886.7,308.6,895.4,311.2,902.6,316.4z M903.3,371.4c0-8.5-1.2-16.1-3.6-22.9
			c-2.4-6.8-6.1-12.2-11-16.2c-5-4-11.1-6-18.5-6c-6.7,0-12.4,1.5-17.1,4.6c-4.7,3-8.5,7.2-11.4,12.4v59.3
			c6.3,11.1,15.9,16.7,28.7,16.7c7.3,0,13.4-2,18.3-6.1c4.9-4.1,8.6-9.5,11-16.3c2.4-6.8,3.6-14.5,3.6-23V371.4z"/>
		<path d="M953.1,434V259.2h21.3V434H953.1z"/>
		<path d="M1102.9,420.5c0.8,4.6,1.8,8.5,3.2,11.7v1.8h-22.2c-1.3-3-2.3-7.2-3-12.9c-4.2,4.6-9.3,8.2-15.3,11
			c-6,2.8-12.5,4.2-19.6,4.2c-8.2,0-15.5-1.6-21.8-4.8c-6.3-3.2-11.2-7.6-14.7-13.1c-3.5-5.5-5.2-11.7-5.2-18.4
			c0-8.7,2.3-16.1,6.8-22.2c4.5-6.1,10.9-10.6,19.2-13.7c8.3-3.1,18.1-4.6,29.4-4.6h20.7v-9.8c0-7.5-2.2-13.4-6.7-17.7
			c-4.4-4.3-10.8-6.4-19.2-6.4c-5.1,0-9.6,0.9-13.7,2.7c-4,1.8-7.2,4.2-9.4,7.2c-2.2,3-3.4,6.2-3.4,9.7H1007c0-6,2-11.8,6.1-17.4
			c4.1-5.6,9.9-10.2,17.3-13.7c7.4-3.5,15.9-5.3,25.5-5.3c9.1,0,17.1,1.5,23.9,4.6c6.9,3.1,12.2,7.7,16.1,13.9
			c3.9,6.2,5.8,13.7,5.8,22.7v57.3C1101.8,411.5,1102.2,415.9,1102.9,420.5z M1062.7,415.5c4.2-1.7,7.8-4,10.9-6.8
			c3-2.8,5.3-5.8,6.9-9.1v-25.5h-17.3c-12.1,0-21.4,1.9-27.9,5.7c-6.4,3.8-9.7,9.5-9.7,17c0,4,0.9,7.6,2.7,10.8s4.5,5.7,8,7.6
			c3.5,1.9,7.7,2.8,12.7,2.8C1054,418.1,1058.5,417.2,1062.7,415.5z"/>
		<path d="M1187,434c-4.9,1.5-10.3,2.3-16.3,2.3c-8.6,0-15.5-2.6-20.6-7.7c-5.2-5.2-7.8-13.5-7.8-25.1v-76.5h-22.4v-16h22.4V281
			h21.3v29.9h23v16h-23v76.6c0,5.8,1.2,9.8,3.6,11.8c2.4,2,5.7,3,9.9,3c1.6,0,3.3-0.1,5.2-0.4c1.9-0.3,3.4-0.5,4.6-0.9L1187,434z"/>
		<path d="M1302.8,416.9V434h-89.5h-8.1v-15.4l67.9-90.6h-67v-17.2h84.1h9.3v14.8l-68.5,91.2H1302.8z"/>
	</g>
</g>
</svg>
