<?xml version="1.0" encoding="utf-8"?>
<!-- Generator: Adobe Illustrator 21.1.0, SVG Export Plug-In . SVG Version: 6.00 Build 0)  -->
<svg version="1.1" id="Ebene_1" xmlns="http://www.w3.org/2000/svg" xmlns:xlink="http://www.w3.org/1999/xlink" x="0px" y="0px"
	 viewBox="0 0 46.9 53.4" style="enable-background:new 0 0 46.9 53.4;" xml:space="preserve">
<title>title_path</title>
<desc>Created with Sketch.</desc>
<g id="_x31_.0_x5F_einstieg-copy-4" transform="translate(-450.000000, -121.000000)">
	<g id="title_path" transform="translate(450.000000, 121.793103)">
		<path id="Fill-8" d="M10.5,36c1.1,2.9,2.7,5.2,4.9,6.9c2.2,1.7,4.9,2.5,8,2.5c3.1,0,5.8-0.8,7.9-2.5c2.2-1.7,3.8-4,4.9-6.9
			c1.1-2.9,1.6-6.1,1.6-9.6v-1.1c0-3.5-0.6-6.7-1.7-9.6c-1.1-2.9-2.8-5.2-4.9-6.9c-2.2-1.7-4.9-2.6-8-2.6c-3.1,0-5.8,0.9-7.9,2.6
			c-2.2,1.7-3.8,4-4.9,6.9c-1.1,2.9-1.6,6.1-1.6,9.6v1.1C8.9,29.9,9.4,33.1,10.5,36 M2.9,12C4.8,8,7.5,4.9,11,2.6
			c3.5-2.3,7.7-3.4,12.4-3.4c4.8,0,8.9,1.1,12.5,3.4C39.4,4.9,42.1,8,44,12c1.9,4,2.9,8.4,2.9,13.4v1.1c0,5-1,9.4-2.9,13.4
			c-1.9,3.9-4.6,7.1-8.2,9.3c-3.5,2.3-7.7,3.4-12.4,3.4c-4.7,0-8.9-1.1-12.4-3.4c-3.5-2.3-6.3-5.4-8.2-9.3C1,35.9,0,31.4,0,26.5
			v-1.1C0,20.4,1,15.9,2.9,12"/>
	</g>
</g>
</svg>
