<?xml version="1.0" encoding="utf-8"?>
<!-- Generator: Adobe Illustrator 21.1.0, SVG Export Plug-In . SVG Version: 6.00 Build 0)  -->
<svg version="1.1" id="Ebene_1" xmlns="http://www.w3.org/2000/svg" xmlns:xlink="http://www.w3.org/1999/xlink" x="0px" y="0px"
	 viewBox="0 0 28.1 64.9" style="enable-background:new 0 0 28.1 64.9;" xml:space="preserve">
<title>title_path</title>
<desc>Created with Sketch.</desc>
<g id="_x31_.0_x5F_einstieg-copy-4" transform="translate(-450.000000, -121.000000)">
	<g id="title_path" transform="translate(450.000000, 121.793103)">
		<path id="Fill-12" d="M28.1,63.2c-2,0.6-4.3,1-6.8,1c-3.6,0-6.5-1.1-8.6-3.2c-2.2-2.2-3.3-5.7-3.3-10.5v-32H0v-6.7h9.4V-0.8h8.9
			v12.5h9.6v6.7h-9.6v32c0,2.4,0.5,4.1,1.5,4.9c1,0.8,2.4,1.3,4.1,1.3c0.7,0,1.4-0.1,2.2-0.2c0.8-0.1,1.4-0.2,1.9-0.4L28.1,63.2z"/>
	</g>
</g>
</svg>
