<?xml version="1.0" encoding="UTF-8"?>
<svg width="300px" height="87px" viewBox="0 0 300 87" version="1.1" xmlns="http://www.w3.org/2000/svg" xmlns:xlink="http://www.w3.org/1999/xlink">
    <!-- Generator: Sketch 48.1 (47250) - http://www.bohemiancoding.com/sketch -->
    <title>title_path</title>
    <desc>Created with Sketch.</desc>
    <defs></defs>
    <g id="1.0_einstieg-copy-4" stroke="none" stroke-width="1" fill="none" fill-rule="evenodd" transform="translate(-450.000000, -121.000000)">
        <g id="title_path" transform="translate(450.000000, 121.793103)" fill="#000000">
            <path d="M34.8376078,21.304663 C34.5834902,17.2791928 33.4968235,13.9100705 31.5776078,11.1992555 C29.6576078,8.48883229 26.6352549,7.13342476 22.5109412,7.13342476 C18.9572157,7.13342476 15.9983922,8.42535266 13.6352549,11.0092085 C11.2713333,13.5930643 9.78780392,17.2470611 9.18505882,21.9704154 L34.8376078,21.9704154 L34.8376078,21.304663 Z M43.7372157,29.1036442 L8.89956863,29.1036442 C8.99486275,32.3062304 9.66113725,35.2070925 10.8987843,37.8062304 C12.1360392,40.406152 13.8889804,42.4590517 16.1576078,43.9645376 C18.425451,45.4708072 21.0834902,46.2235502 24.1293725,46.2235502 C27.1113333,46.2235502 29.6893725,45.6220611 31.863098,44.4163401 C34.0360392,43.2117947 35.9799608,41.4845219 37.6932941,39.2329545 L43.0713333,43.4179075 C41.1674118,46.3352273 38.6285882,48.7204154 35.4564314,50.5746473 C32.283098,52.429663 28.3485882,53.356779 23.6532941,53.356779 C18.9572157,53.356779 14.8168235,52.2952586 11.2317255,50.1706505 C7.64584314,48.0472179 4.87839216,45.098942 2.92662745,41.325431 C0.975647059,37.5530956 -3.92156863e-05,33.2729232 -3.92156863e-05,28.4853056 L-3.92156863e-05,26.4406348 C-3.92156863e-05,21.0836599 1.04701961,16.3990987 3.14113725,12.388127 C5.2352549,8.37793887 8.00309804,5.3109326 11.4458431,3.18632445 C14.8881961,1.0625 18.5768235,0.000195924765 22.5109412,0.000195924765 C27.3015294,0.000195924765 31.2756471,1.06994514 34.432902,3.20983542 C37.5897647,5.34972571 39.9301569,8.30662226 41.452902,12.0789577 C42.9760392,15.8520768 43.7372157,20.211011 43.7372157,25.1565439 L43.7372157,29.1036442 Z" id="Fill-1"></path>
            <path d="M94.5184314,18.6891066 L94.5184314,52.4057994 L85.6188235,52.4057994 L85.6188235,18.594279 C85.6188235,14.6636364 84.7694118,11.8097962 83.072549,10.0339342 C81.374902,8.25924765 78.8129412,7.37092476 75.3862745,7.37092476 C72.6572549,7.37092476 70.2062745,8.11661442 68.0333333,9.60603448 C65.8596078,11.0966301 64.1380392,13.094279 62.8694118,15.5978056 L62.8694118,52.4057994 L53.9698039,52.4057994 L53.9698039,0.950862069 L62.3937255,0.950862069 L62.6792157,7.27609718 C64.5509804,4.96222571 66.7878431,3.17029781 69.3898039,1.90227273 C71.9909804,0.634639498 74.8627451,0.000235109718 78.0039216,0.000235109718 C89.0133333,0.000235109718 94.5184314,6.22985893 94.5184314,18.6891066" id="Fill-4"></path>
            <path d="M108.750588,32.8408699 C109.607451,32.9835031 110.194118,33.1343652 110.511373,33.2926724 L110.511373,41.4243339 C109.147059,41.1711991 107.703529,41.0442398 106.180392,41.0442398 C103.261176,41.0442398 100.826275,41.6943182 98.874902,42.9936912 C96.9239216,44.2942398 95.4560784,46.1171238 94.4729412,48.4627351 L94.4729412,85.0324843 L85.5729412,85.0324843 L85.5729412,33.5779389 L94.234902,33.5779389 L94.425098,39.4274687 C95.7580392,37.2719044 97.4392157,35.5990987 99.4698039,34.4102273 C101.5,33.2213558 103.88,32.6269201 106.60902,32.6269201 C107.18,32.6269201 107.893725,32.6982367 108.750588,32.8408699" id="Fill-6"></path>
            <path d="M125.202392,69.4344044 C126.297294,72.3195925 127.939255,74.6107367 130.128275,76.3062696 C132.317686,78.0025862 134.982784,78.8501567 138.123961,78.8501567 C141.23298,78.8501567 143.882392,78.0025862 146.071804,76.3062696 C148.260824,74.6107367 149.902784,72.3195925 150.997686,69.4344044 C152.092196,66.55 152.639647,63.3638715 152.639647,59.875627 L152.639647,58.7819749 C152.639647,55.294906 152.083961,52.1087774 150.973765,49.2235893 C149.862784,46.339185 148.213373,44.0398119 146.024353,42.3278213 C143.834941,40.6162226 141.169843,39.7600313 138.028667,39.7600313 C134.918863,39.7600313 132.277294,40.6162226 130.104353,42.3278213 C127.93102,44.0398119 126.297294,46.339185 125.202392,49.2235893 C124.107882,52.1087774 123.560431,55.294906 123.560431,58.7819749 L123.560431,59.875627 C123.560431,63.3638715 124.107882,66.55 125.202392,69.4344044 M117.516118,45.3717085 C119.420039,41.4089342 122.140039,38.2941223 125.678471,36.0268809 C129.215725,33.760815 133.332588,32.6268025 138.028667,32.6268025 C142.787882,32.6268025 146.943961,33.760815 150.497686,36.0268809 C154.05102,38.2941223 156.780039,41.4089342 158.683569,45.3717085 C160.58749,49.3348746 161.539255,53.805094 161.539255,58.7819749 L161.539255,59.875627 C161.539255,64.8536834 160.58749,69.315674 158.683569,73.2627743 C156.780039,77.2098746 154.058863,80.3172414 150.521608,82.5836991 C146.983569,84.8505486 142.85102,85.9833856 138.123961,85.9833856 C133.395725,85.9833856 129.263176,84.8505486 125.725922,82.5836991 C122.187882,80.3172414 119.459255,77.2098746 117.540039,73.2627743 C115.620039,69.315674 114.660824,64.8536834 114.660824,59.875627 L114.660824,58.7819749 C114.660824,53.805094 115.612588,49.3348746 117.516118,45.3717085" id="Fill-8"></path>
            <path d="M212.986745,33.5778605 L212.986745,85.032406 L204.51498,85.032406 L204.372627,79.9442398 C200.945961,83.9708856 195.916941,85.9834248 189.285569,85.9834248 C183.986353,85.9834248 179.845961,84.4305251 176.864,81.3235502 C173.881255,78.2165752 172.390275,73.3658699 172.390275,66.7714342 L172.390275,33.5778605 L181.290275,33.5778605 L181.290275,66.8666536 C181.290275,71.1464342 182.170667,74.1664185 183.931451,75.9258229 C185.692235,77.6856191 187.95302,78.5653213 190.713412,78.5653213 C197.376157,78.5653213 201.833804,76.076685 204.087137,71.0990204 L204.087137,33.5778605 L212.986745,33.5778605 Z" id="Fill-10"></path>
            <path d="M248.157922,85.0326019 C246.126549,85.6662226 243.857922,85.9836207 241.352039,85.9836207 C237.766157,85.9836207 234.886549,84.9064263 232.713608,82.7500784 C230.539882,80.5945141 229.454,77.0905956 229.454,72.2402821 L229.454,40.2833856 L220.077922,40.2833856 L220.077922,33.5780564 L229.454,33.5780564 L229.454,21.0710031 L238.353608,21.0710031 L238.353608,33.5780564 L247.967333,33.5780564 L247.967333,40.2833856 L238.353608,40.2833856 L238.353608,72.2880878 C238.353608,74.7293103 238.860667,76.3703762 239.876745,77.2097179 C240.891647,78.0502351 242.271647,78.469906 244.017137,78.469906 C244.683804,78.469906 245.412824,78.415047 246.206157,78.3033699 C246.999098,78.1928683 247.634,78.0737461 248.110078,77.9467868 L248.157922,85.0326019 Z" id="Fill-12"></path>
            <path d="M290.800392,53.9314655 C290.546275,49.9059953 289.459608,46.536873 287.540392,43.826058 C285.620392,41.1156348 282.598039,39.7602273 278.473725,39.7602273 C274.920392,39.7602273 271.961176,41.0521552 269.598039,43.636011 C267.234118,46.2198668 265.750588,49.8738636 265.147843,54.5972179 L290.800392,54.5972179 L290.800392,53.9314655 Z M299.7,61.7304467 L264.862353,61.7304467 C264.958039,64.9330329 265.624314,67.833895 266.861176,70.4330329 C268.098824,73.0329545 269.851373,75.0858542 272.12,76.5913401 C274.388235,78.0976097 277.046275,78.8503527 280.091765,78.8503527 C283.074118,78.8503527 285.652157,78.2488636 287.825882,77.0431426 C289.998824,75.8385972 291.942353,74.1113245 293.655686,71.8597571 L299.034118,76.04471 C297.130196,78.9620298 294.591373,81.3472179 291.419216,83.2014498 C288.245882,85.0564655 284.311373,85.9835815 279.616078,85.9835815 C274.920392,85.9835815 270.779608,84.9220611 267.19451,82.797453 C263.608627,80.6740204 260.841176,77.7257445 258.889412,73.9522335 C256.938431,70.1798981 255.962745,65.8997257 255.962745,61.1121082 L255.962745,59.0674373 C255.962745,53.7104624 257.009804,49.0259013 259.103922,45.0149295 C261.198039,41.0047414 263.965882,37.9377351 267.40902,35.813127 C270.85098,33.6893025 274.539608,32.6269984 278.473725,32.6269984 C283.264314,32.6269984 287.238431,33.6967476 290.396078,35.8366379 C293.552549,37.9765282 295.892941,40.9334248 297.415686,44.7057602 C298.938824,48.4788793 299.7,52.8378135 299.7,57.7833464 L299.7,61.7304467 Z" id="Fill-15"></path>
        </g>
    </g>
</svg>