<?xml version="1.0" encoding="utf-8"?>
<!-- Generator: Adobe Illustrator 21.1.0, SVG Export Plug-In . SVG Version: 6.00 Build 0)  -->
<svg version="1.1" id="Ebene_1" xmlns="http://www.w3.org/2000/svg" xmlns:xlink="http://www.w3.org/1999/xlink" x="0px" y="0px"
	 viewBox="0 0 43.7 53.4" style="enable-background:new 0 0 43.7 53.4;" xml:space="preserve">
<title>title_path</title>
<desc>Created with Sketch.</desc>
<g id="_x31_.0_x5F_einstieg-copy-4" transform="translate(-450.000000, -121.000000)">
	<g id="title_path" transform="translate(450.000000, 121.793103)">
		<path id="Fill-1" d="M34.8,20.5c-0.3-4-1.3-7.4-3.3-10.1c-1.9-2.7-4.9-4.1-9.1-4.1c-3.6,0-6.5,1.3-8.9,3.9
			c-2.4,2.6-3.8,6.2-4.5,11h25.7V20.5z M43.7,28.3H8.9c0.1,3.2,0.8,6.1,2,8.7c1.2,2.6,3,4.7,5.3,6.2c2.3,1.5,4.9,2.3,8,2.3
			c3,0,5.6-0.6,7.7-1.8c2.2-1.2,4.1-2.9,5.8-5.2l5.4,4.2c-1.9,2.9-4.4,5.3-7.6,7.2c-3.2,1.9-7.1,2.8-11.8,2.8
			c-4.7,0-8.8-1.1-12.4-3.2c-3.6-2.1-6.4-5.1-8.3-8.8C1,36.8,0,32.5,0,27.7v-2c0-5.4,1-10,3.1-14.1c2.1-4,4.9-7.1,8.3-9.2
			c3.4-2.1,7.1-3.2,11.1-3.2c4.8,0,8.8,1.1,11.9,3.2c3.2,2.1,5.5,5.1,7,8.9c1.5,3.8,2.3,8.1,2.3,13.1V28.3z"/>
	</g>
</g>
</svg>
